# xmcd CD database file generated by freedbAccess_ocx
#
# Track frame offsets:
#       150
#       20750
#       39437
#       59614
#       77563
#       97326
#       122199
#       142124
#       156388
#       174802
#       197271
#       214746
#       236659
#       254011
#
# Disc length: 3648 seconds
#
# Revision: 0
# Processed by: cddbd v1.5.2PL0 Copyright (c) Steve Scherf et al.
# Submitted via: CDnGo 2.00
#
DISCID=cb0e3e0e
DTITLE=Jari Terres - O Melhor de Jari Terres
DYEAR=1900
DGENRE=
TTITLE0=Alma de Estância e Querência
TTITLE1=Os Cataventos do Tempo
TTITLE2=Alma Estradeira
TTITLE3=Filosofia de Galpão
TTITLE4=Fronteiro de Alma e Pampa
TTITLE5=Querência,tempo e Ausência
TTITLE6=Romance do Esquilador
TTITLE7=A Don Federico Viejo
TTITLE8=A Hora do Canto Novo
TTITLE9=Coplas Pra Um Galpão de Estância
TTITLE10=No Compasso do Meu Mundo
TTITLE11=Changueiro de Vida e Lida
TTITLE12=Alma de Ferro
TTITLE13=Em Recoluta
EXTD=
EXTT0=
EXTT1=
EXTT2=
EXTT3=
EXTT4=
EXTT5=
EXTT6=
EXTT7=
EXTT8=
EXTT9=
EXTT10=
EXTT11=
EXTT12=
EXTT13=
PLAYORDER=
